<svg xmlns="http://www.w3.org/2000/svg" width="372" height="317" viewBox="0 0 372 317" version="1.1"><path d="M 185.708 94.141 C 184.331 96.539, 177.919 107.725, 171.459 119 C 164.999 130.275, 156.559 144.900, 152.703 151.500 C 135.391 181.131, 133 185.739, 133 189.465 C 133 197.172, 137.378 200, 149.313 200 C 157.823 200, 157.744 200.057, 163.714 189.500 C 173.546 172.112, 187.289 148.426, 187.976 147.684 C 188.741 146.858, 189.786 148.557, 207.866 180 C 220.692 202.308, 218.427 200.250, 229.713 199.842 C 246.519 199.234, 248.345 193.077, 237.378 174 C 233.742 167.675, 229.870 160.925, 228.773 159 C 227.676 157.075, 223.376 149.650, 219.217 142.500 C 215.058 135.350, 209.207 125.225, 206.215 120 C 203.222 114.775, 199.863 108.925, 198.751 107 C 197.639 105.075, 195.400 101.025, 193.776 98 C 189.101 89.294, 188.623 89.066, 185.708 94.141 M 104.500 255.525 C 103.950 255.727, 101.562 256.391, 99.193 257 C 94.124 258.304, 88.041 263.479, 84.701 269.329 C 83.392 271.623, 78.198 280.590, 73.160 289.257 C 61.904 308.618, 61.714 307.002, 75.250 306.990 C 87.806 306.979, 93.889 305.045, 99.190 299.376 C 101.887 296.492, 125 257.545, 125 255.884 C 125 255.053, 106.660 254.732, 104.500 255.525 M 252 256.192 C 252 256.966, 252.408 258.028, 252.906 258.550 C 253.404 259.072, 258.628 267.825, 264.514 278 C 280.137 305.006, 282.138 306.573, 301.751 307.162 C 315.641 307.579, 315.593 309.338, 302.327 286.153 C 290.845 266.085, 285.057 259.042, 278.323 256.943 C 272.178 255.027, 252 254.452, 252 256.192" stroke="none" fill="#bd0518" fill-rule="evenodd"/><path d="M 182.760 16.161 C 179.756 21.297, 163.654 49.125, 146.977 78 C 130.300 106.875, 105.084 150.525, 90.941 175 C 42.644 258.578, 17.318 302.499, 16.124 304.750 L 14.930 307 30.751 307 L 46.572 307 61.036 281.890 C 86.379 237.894, 76.596 241.030, 188.500 241.030 C 300.337 241.030, 290.734 237.900, 316.519 282.750 L 330.461 307 346.230 307 C 354.904 307, 362 306.849, 362 306.663 C 362 306.032, 189.951 8.551, 189.085 7.685 C 188.601 7.201, 185.823 10.923, 182.760 16.161 M 176.242 82.685 C 169.627 94.133, 154.481 120.324, 142.583 140.886 C 116.274 186.357, 115.418 188.650, 120.652 199.680 C 127.258 213.601, 129.897 214.133, 190.568 213.786 L 240.500 213.500 245.243 211.143 C 263.184 202.228, 262.881 190.201, 243.888 157.316 C 236.640 144.767, 221.506 118.525, 210.257 99 C 199.007 79.475, 189.459 63.133, 189.037 62.685 C 188.615 62.237, 182.858 71.237, 176.242 82.685" stroke="none" fill="#0c0404" fill-rule="evenodd"/></svg>